<?xml version="1.0" encoding="UTF-8" standalone="no"?>
<svg
   xmlns:dc="http://purl.org/dc/elements/1.1/"
   xmlns:cc="http://creativecommons.org/ns#"
   xmlns:rdf="http://www.w3.org/1999/02/22-rdf-syntax-ns#"
   xmlns:svg="http://www.w3.org/2000/svg"
   xmlns="http://www.w3.org/2000/svg"
   xmlns:sodipodi="http://sodipodi.sourceforge.net/DTD/sodipodi-0.dtd"
   xmlns:inkscape="http://www.inkscape.org/namespaces/inkscape"
   width="210mm"
   height="297mm"
   viewBox="0 0 210 297"
   version="1.1"
   id="svg9526"
   sodipodi:docname="Infografia_CASA_paper.svg"
   inkscape:version="1.0.2-2 (e86c870879, 2021-01-15)">
  <defs
     id="defs9520">
    <rect
       x="64.358505"
       y="55.752422"
       width="45.583158"
       height="31.681204"
       id="rect9137" />
    <rect
       x="64.358505"
       y="55.752422"
       width="31.342028"
       height="28.531076"
       id="rect9473" />
    <rect
       x="64.358505"
       y="55.752422"
       width="31.342028"
       height="28.531076"
       id="rect9137-9" />
    <rect
       x="64.358505"
       y="55.752422"
       width="31.342028"
       height="28.531076"
       id="rect9476" />
    <rect
       x="31"
       y="81.290031"
       width="67.546016"
       height="40.324082"
       id="rect9301" />
    <rect
       x="31"
       y="81.290031"
       width="61.546001"
       height="44.613972"
       id="rect9479" />
    <rect
       x="31"
       y="81.290031"
       width="61.546001"
       height="44.613972"
       id="rect9301-9" />
    <rect
       x="31"
       y="81.290031"
       width="61.546001"
       height="44.613972"
       id="rect9482" />
    <rect
       x="31"
       y="81.290031"
       width="67.751071"
       height="34.985843"
       id="rect9301-0" />
    <rect
       x="31"
       y="81.290031"
       width="61.546001"
       height="44.613972"
       id="rect9485" />
    <rect
       x="31"
       y="81.290031"
       width="61.546001"
       height="44.613972"
       id="rect9301-0-9" />
    <rect
       x="31"
       y="81.290031"
       width="61.546001"
       height="44.613972"
       id="rect9488" />
    <rect
       x="64.358505"
       y="55.752422"
       width="45.583157"
       height="31.681204"
       id="rect9137-4" />
    <rect
       x="64.358505"
       y="55.752422"
       width="45.583157"
       height="31.681204"
       id="rect9773" />
  </defs>
  <sodipodi:namedview
     id="base"
     pagecolor="#ffffff"
     bordercolor="#666666"
     borderopacity="1.0"
     inkscape:pageopacity="0.0"
     inkscape:pageshadow="2"
     inkscape:zoom="1.979899"
     inkscape:cx="270.81726"
     inkscape:cy="282.12096"
     inkscape:document-units="mm"
     inkscape:current-layer="layer1"
     inkscape:document-rotation="0"
     showgrid="false"
     inkscape:window-width="1920"
     inkscape:window-height="1027"
     inkscape:window-x="-8"
     inkscape:window-y="-8"
     inkscape:window-maximized="1"
     inkscape:snap-text-baseline="true"
     showguides="true"
     inkscape:guide-bbox="true" />
  <metadata
     id="metadata9523">
    <rdf:RDF>
      <cc:Work
         rdf:about="">
        <dc:format>image/svg+xml</dc:format>
        <dc:type
           rdf:resource="http://purl.org/dc/dcmitype/StillImage" />
        <dc:title></dc:title>
      </cc:Work>
    </rdf:RDF>
  </metadata>
  <g
     inkscape:label="Capa 1"
     inkscape:groupmode="layer"
     id="layer1">
    <rect
       style="display:inline;mix-blend-mode:normal;fill:#466e96;fill-opacity:1;fill-rule:nonzero;stroke:#466e96;stroke-width:2.88904;stroke-linecap:round;stroke-linejoin:round;stroke-miterlimit:4;stroke-dasharray:none;stroke-opacity:1;paint-order:normal"
       id="rect8396"
       width="54.461506"
       height="1.1062453"
       x="29.213892"
       y="94.996613"
       ry="0.35076258" />
    <path
       style="display:inline;mix-blend-mode:normal;fill:#630561;fill-opacity:1;stroke:#630569;stroke-width:1.23765;stroke-linecap:round;stroke-linejoin:round;stroke-miterlimit:4;stroke-dasharray:none;stroke-opacity:1;paint-order:stroke markers fill"
       d="M 56.367164,39.517283 28.099424,60.222187 H 84.634915 Z"
       id="path8405-8"
       sodipodi:nodetypes="cccc" />
    <path
       style="display:inline;mix-blend-mode:normal;fill:#e5e5e5;fill-opacity:1;stroke:none;stroke-width:0;stroke-linecap:butt;stroke-linejoin:miter;stroke-miterlimit:4;stroke-dasharray:none;stroke-opacity:1"
       d="m 31.123175,95.006016 50.44068,0.08137 L 81.552525,59.348452 56.308701,41.497238 31.123979,59.362091 Z"
       id="path8476" />
    <rect
       style="display:inline;fill:none;stroke:none;stroke-width:0.0926866"
       width="16.248133"
       height="13.884811"
       x="49.624367"
       y="53.617962"
       id="rect8616" />
    <path
       style="display:inline;mix-blend-mode:normal;fill:#ffe3e3;fill-opacity:1;stroke:none;stroke-width:0;stroke-linecap:round;stroke-linejoin:round;stroke-miterlimit:4;stroke-dasharray:none;stroke-opacity:1;paint-order:normal"
       d="M 55.280037,59.362147 V 43.516399 L 33.240262,59.362147 Z"
       id="path8618"
       sodipodi:nodetypes="cccc" />
    <path
       style="display:inline;mix-blend-mode:normal;fill:#ffd5d5;fill-opacity:1;stroke:none;stroke-width:0;stroke-linecap:round;stroke-linejoin:round;stroke-miterlimit:4;stroke-dasharray:none;stroke-opacity:1;paint-order:normal"
       d="m 24.121322,44.670932 v 0 h 21.798699 z"
       id="path8618-7"
       sodipodi:nodetypes="cccc" />
    <path
       style="display:inline;mix-blend-mode:normal;fill:#fbffe3;fill-opacity:1;stroke:none;stroke-width:0;stroke-linecap:round;stroke-linejoin:round;stroke-miterlimit:4;stroke-dasharray:none;stroke-opacity:1;paint-order:normal"
       d="M 57.425851,59.362147 V 43.516399 l 21.994757,15.845748 z"
       id="path8618-0"
       sodipodi:nodetypes="cccc" />
    <g
       aria-label="A.IR"
       transform="matrix(0.35763571,0,0,0.34445307,18.240421,32.4526)"
       id="text9135"
       style="font-style:normal;font-weight:normal;font-size:21.1667px;line-height:1.25;font-family:sans-serif;white-space:pre;shape-inside:url(#rect9137);display:inline;fill:#000000;fill-opacity:1;stroke:none">
      <path
         d="M 69.754016,75.062976 H 68.925581 L 68.352352,73.43359 h -2.528493 l -0.57323,1.629386 h -0.789172 l 2.128017,-5.846158 h 1.036525 z m -1.641165,-2.296845 -1.024746,-2.870075 -1.028672,2.870075 z"
         style="font-size:8.04092px"
         id="path9808" />
      <path
         d="M 71.787803,75.062976 H 70.849434 V 73.944 h 0.938369 z"
         style="font-size:8.04092px"
         id="path9810" />
      <path
         d="M 79.774699,75.062976 H 74.102681 V 73.59674 h 1.881026 V 62.165887 h -1.881026 v -1.466236 h 5.672018 v 1.466236 H 77.893673 V 73.59674 h 1.881026 z"
         style="font-size:19.7556px"
         id="path9812" />
      <path
         d="m 94.909727,75.062976 h -2.479096 l -4.803852,-5.710604 h -2.691315 v 5.710604 H 83.025499 V 60.699651 h 4.022502 q 1.302249,0 2.170415,0.173633 0.868166,0.163987 1.562699,0.59807 0.78135,0.491961 1.215433,1.244372 0.443729,0.742764 0.443729,1.890672 0,1.553053 -0.781349,2.604498 -0.78135,1.0418 -2.151123,1.572345 z m -4.466232,-10.32153 q 0,-0.617362 -0.221865,-1.09003 -0.212218,-0.482315 -0.713825,-0.810289 -0.41479,-0.279742 -0.983921,-0.385851 -0.569131,-0.115756 -1.340835,-0.115756 h -2.247585 v 5.421215 h 1.929258 q 0.906751,0 1.581991,-0.154341 0.67524,-0.163987 1.147909,-0.59807 0.434083,-0.405144 0.636655,-0.926044 0.212218,-0.530545 0.212218,-1.340834 z"
         style="font-size:19.7556px"
         id="path9814" />
    </g>
    <rect
       style="display:inline;fill:#fde3ff;fill-opacity:1;fill-rule:nonzero;stroke:none;stroke-width:0;stroke-linecap:round;stroke-linejoin:round;stroke-miterlimit:4;stroke-dasharray:none;stroke-opacity:1;paint-order:stroke markers fill"
       id="rect9209"
       width="22.011047"
       height="15.367419"
       x="33.26899"
       y="60.839863"
       ry="0.35076267" />
    <rect
       style="display:inline;fill:#e3ffef;fill-opacity:1;fill-rule:nonzero;stroke:none;stroke-width:0;stroke-linecap:round;stroke-linejoin:round;stroke-miterlimit:4;stroke-dasharray:none;stroke-opacity:1;paint-order:stroke markers fill"
       id="rect9211"
       width="21.978144"
       height="15.367419"
       x="57.425858"
       y="60.839863"
       ry="0.35076267" />
    <rect
       style="display:inline;fill:#e5e3ff;fill-opacity:1;fill-rule:nonzero;stroke:none;stroke-width:0;stroke-linecap:round;stroke-linejoin:round;stroke-miterlimit:4;stroke-dasharray:none;stroke-opacity:1;paint-order:stroke markers fill"
       id="rect9213"
       width="22.011047"
       height="14.676457"
       x="33.26899"
       y="78.273994"
       ry="0.35076267" />
    <rect
       style="display:inline;fill:#e3efff;fill-opacity:1;fill-rule:nonzero;stroke:none;stroke-width:0;stroke-linecap:round;stroke-linejoin:round;stroke-miterlimit:4;stroke-dasharray:none;stroke-opacity:1;paint-order:stroke markers fill"
       id="rect9215"
       width="21.978144"
       height="14.676457"
       x="57.425858"
       y="78.273994"
       ry="0.35076267" />
    <g
       aria-label="3.WLP"
       transform="matrix(0.35763571,0,0,0.34445307,45.301098,35.982736)"
       id="text9299"
       style="font-style:normal;font-weight:normal;font-size:22.5778px;line-height:1.25;font-family:sans-serif;white-space:pre;shape-inside:url(#rect9301);display:inline;fill:#000000;fill-opacity:1;stroke:none">
      <path
         d="m 42.1991,96.96104 q 0.329803,0.295449 0.542801,0.742057 0.212998,0.446609 0.212998,1.154311 0,0.700832 -0.254224,1.284862 -0.254223,0.58402 -0.714573,1.01689 -0.515318,0.48096 -1.216149,0.71457 -0.693961,0.22674 -1.52534,0.22674 -0.851991,0 -1.676499,-0.20612 -0.824508,-0.19926 -1.353567,-0.43974 v -1.43602 h 0.103064 q 0.584026,0.38477 1.374179,0.63899 0.790154,0.25423 1.52534,0.25423 0.432866,0 0.9207,-0.14429 0.487834,-0.14429 0.790154,-0.426 0.316061,-0.30232 0.467221,-0.666475 0.15803,-0.364157 0.15803,-0.9207 0,-0.549672 -0.178643,-0.906959 -0.171773,-0.364157 -0.480963,-0.570284 -0.30919,-0.212998 -0.748928,-0.288578 -0.439737,-0.08245 -0.948184,-0.08245 h -0.618381 v -1.140569 h 0.480963 q 1.044377,0 1.662758,-0.432866 0.625251,-0.439738 0.625251,-1.277988 0,-0.371028 -0.15803,-0.645864 -0.158031,-0.281707 -0.439738,-0.46035 -0.295448,-0.178644 -0.632122,-0.247353 -0.336675,-0.06871 -0.76267,-0.06871 -0.652736,0 -1.387922,0.233611 -0.735186,0.233611 -1.387921,0.659606 h -0.06871 v -1.436018 q 0.487834,-0.240481 1.2986,-0.439737 0.817637,-0.206127 1.580306,-0.206127 0.748928,0 1.319213,0.137418 0.570284,0.137418 1.030635,0.439737 0.494704,0.329804 0.748927,0.797025 0.254224,0.467221 0.254224,1.092473 0,0.851991 -0.604639,1.490985 -0.597769,0.632122 -1.415405,0.797024 v 0.09619 q 0.329803,0.05497 0.755798,0.233611 0.425996,0.171772 0.721445,0.432866 z"
         style="font-size:14.0716px"
         id="path9837" />
      <path
         d="m 47.393499,101.88747 h -1.642145 v -1.958201 h 1.642145 z"
         style="font-size:14.0716px"
         id="path9839" />
      <path
         d="M 69.054007,86.541322 65.06545,101.88747 H 62.767134 L 59.541247,89.148828 56.387505,101.88747 H 54.140721 L 50.08002,86.541322 h 2.092189 l 3.225887,12.759259 3.174355,-12.759259 h 2.071576 l 3.205274,12.882935 3.205274,-12.882935 z"
         style="font-size:21.1074px"
         id="path9841" />
      <path
         d="m 81.772042,101.88747 h -9.70858 V 86.541322 h 2.040657 v 13.532238 h 7.667923 z"
         style="font-size:21.1074px"
         id="path9843" />
      <path
         d="m 93.851082,91.179179 q 0,1.020328 -0.360722,1.896368 -0.350416,0.865733 -0.989409,1.504727 -0.793589,0.793589 -1.875756,1.195536 -1.082166,0.391641 -2.731182,0.391641 h -2.040657 v 5.720019 H 83.812699 V 86.541322 h 4.163765 q 1.38105,0 2.339541,0.237046 0.95849,0.22674 1.700547,0.721445 0.87604,0.587462 1.350132,1.463501 0.484398,0.87604 0.484398,2.215865 z m -2.123108,0.05153 q 0,-0.793589 -0.278271,-1.381051 -0.278271,-0.587462 -0.84512,-0.95849 -0.494705,-0.319497 -1.133699,-0.45348 -0.628687,-0.144289 -1.597484,-0.144289 h -2.020044 v 6.132278 h 1.72116 q 1.236762,0 2.009738,-0.216434 0.772976,-0.226739 1.257375,-0.711138 0.484398,-0.494704 0.680219,-1.040941 0.206126,-0.546236 0.206126,-1.226455 z"
         style="font-size:21.1074px"
         id="path9845" />
    </g>
    <g
       aria-label="2.BRF"
       transform="matrix(0.35763571,0,0,0.34445307,22.075325,35.982727)"
       id="text9299-2"
       style="font-style:normal;font-weight:normal;font-size:22.5778px;line-height:1.25;font-family:sans-serif;white-space:pre;shape-inside:url(#rect9301-9);display:inline;fill:#000000;fill-opacity:1;stroke:none">
      <path
         d="m 40.696959,101.88747 h -6.925866 v -1.43601 q 0.721445,-0.618384 1.442889,-1.236765 0.728315,-0.618381 1.353567,-1.229891 1.319212,-1.277987 1.807046,-2.026915 0.487834,-0.755799 0.487834,-1.628403 0,-0.797024 -0.529059,-1.243632 -0.522188,-0.45348 -1.463502,-0.45348 -0.625251,0 -1.353567,0.219869 -0.728315,0.219869 -1.422275,0.673348 h -0.06871 v -1.442888 q 0.487833,-0.240482 1.298599,-0.439738 0.817637,-0.199256 1.580307,-0.199256 1.573436,0 2.466652,0.76267 0.893217,0.755799 0.893217,2.054398 0,0.584027 -0.151159,1.092473 -0.144289,0.501576 -0.432867,0.955055 -0.267965,0.425996 -0.632123,0.83825 -0.357286,0.412254 -0.872604,0.913829 -0.735186,0.721445 -1.518468,1.401663 -0.783283,0.673353 -1.463502,1.250503 h 5.50359 z"
         style="font-size:14.0716px"
         id="path9826" />
      <path
         d="M 44.99127,101.88747 H 43.349125 V 99.929269 H 44.99127 Z"
         style="font-size:14.0716px"
         id="path9828" />
      <path
         d="m 61.314778,96.838338 q 0,1.223699 -0.463021,2.160766 -0.463021,0.937067 -1.245748,1.543406 -0.926042,0.7276 -2.039498,1.03628 -1.102432,0.30868 -2.811201,0.30868 H 48.934471 V 85.472267 h 4.861723 q 1.796964,0 2.689934,0.132292 0.892969,0.132292 1.708769,0.551216 0.903994,0.474045 1.311894,1.223699 0.407899,0.738629 0.407899,1.774915 0,1.168577 -0.595313,1.995401 -0.595313,0.8158 -1.587501,1.311894 v 0.08819 q 1.664671,0.341754 2.623787,1.466234 0.959115,1.113456 0.959115,2.822226 z m -3.671097,-7.397317 q 0,-0.595313 -0.198438,-1.003213 -0.198437,-0.4079 -0.63941,-0.661459 -0.518143,-0.297656 -1.256772,-0.363802 -0.738629,-0.07717 -1.830037,-0.07717 h -2.601739 v 4.740457 h 2.822226 q 1.025261,0 1.631598,-0.09922 0.606338,-0.110243 1.124481,-0.440973 0.518143,-0.330729 0.727605,-0.848872 0.220486,-0.529167 0.220486,-1.245748 z m 1.400088,7.485511 q 0,-0.992188 -0.297656,-1.576477 -0.297657,-0.584289 -1.080383,-0.992189 -0.529168,-0.275608 -1.289845,-0.352778 -0.749654,-0.08819 -1.830037,-0.08819 h -3.428563 v 6.107476 h 2.888371 q 1.433162,0 2.34818,-0.143321 0.915018,-0.15434 1.499307,-0.551216 0.617362,-0.429948 0.903994,-0.981164 0.286632,-0.551216 0.286632,-1.422137 z"
         style="text-align:center;text-anchor:middle"
         id="path9830" />
      <path
         d="m 77.99457,101.88747 h -2.83325 l -5.490109,-6.526391 h -3.075785 v 6.526391 H 64.412612 V 85.472267 h 4.59714 q 1.488282,0 2.480471,0.198438 0.992188,0.187413 1.785939,0.683507 0.89297,0.56224 1.389064,1.422137 0.507119,0.848873 0.507119,2.160766 0,1.774915 -0.89297,2.976566 -0.89297,1.190626 -2.458423,1.796963 z M 72.890311,90.091456 q 0,-0.705557 -0.253559,-1.245748 -0.242535,-0.551216 -0.8158,-0.926043 -0.474045,-0.319705 -1.12448,-0.440972 -0.650435,-0.132292 -1.53238,-0.132292 h -2.568666 v 6.195666 h 2.204864 q 1.036285,0 1.807988,-0.176389 0.771702,-0.187414 1.311893,-0.683508 0.496095,-0.463021 0.727605,-1.058334 0.242535,-0.606338 0.242535,-1.53238 z"
         style="text-align:center;text-anchor:middle"
         id="path9832" />
      <path
         d="m 90.595364,87.412547 h -8.30131 v 4.630213 h 7.132733 v 1.940279 h -7.132733 v 7.904431 H 80.111239 V 85.472267 h 10.484125 z"
         style="text-align:center;text-anchor:middle"
         id="path9834" />
    </g>
    <g
       aria-label="1.SCI"
       transform="matrix(0.35763571,0,0,0.34445307,45.345258,52.749681)"
       id="text9299-7"
       style="font-style:normal;font-weight:normal;font-size:22.5778px;line-height:1.25;font-family:sans-serif;white-space:pre;shape-inside:url(#rect9301-0);display:inline;fill:#000000;fill-opacity:1;stroke:none">
      <path
         d="m 44.940777,101.88747 h -5.537944 v -1.04437 h 2.129979 v -6.857159 h -2.129979 v -0.934442 q 0.432867,0 0.927571,-0.06871 0.494705,-0.07558 0.748928,-0.212998 0.316062,-0.171772 0.494705,-0.432866 0.185514,-0.267965 0.212998,-0.714574 h 1.064989 v 9.220748 h 2.088753 z"
         style="font-size:14.0716px"
         id="path9859" />
      <path
         d="M 49.819115,101.88747 H 48.17697 v -1.958201 h 1.642145 z"
         style="font-size:14.0716px"
         id="path9861" />
      <path
         d="m 65.690626,97.20214 q 0,0.959116 -0.451997,1.896182 -0.440973,0.937068 -1.245748,1.587498 -0.881945,0.70556 -2.061547,1.10244 -1.168577,0.39687 -2.822225,0.39687 -1.774915,0 -3.197052,-0.33073 -1.411112,-0.33073 -2.877347,-0.98116 v -2.734033 h 0.154341 q 1.245748,1.036286 2.877347,1.598526 1.631598,0.562237 3.06476,0.562237 2.028474,0 3.152954,-0.760675 1.135505,-0.760678 1.135505,-2.028474 0,-1.091408 -0.540192,-1.60955 -0.529167,-0.518143 -1.620574,-0.804776 -0.826824,-0.220486 -1.796964,-0.363802 -0.959115,-0.143316 -2.039498,-0.363802 -2.182815,-0.463022 -3.24115,-1.576478 -1.04731,-1.12448 -1.04731,-2.921444 0,-2.061547 1.741842,-3.373441 1.741842,-1.322918 4.420751,-1.322918 1.730818,0 3.175004,0.33073 1.444185,0.330729 2.557641,0.815799 v 2.57969 h -0.15434 q -0.937067,-0.79375 -2.469447,-1.311893 -1.521356,-0.529167 -3.119882,-0.529167 -1.752866,0 -2.822225,0.727604 -1.058334,0.727605 -1.058334,1.874134 0,1.025262 0.529167,1.609551 0.529167,0.584288 1.863109,0.892969 0.705557,0.154341 2.006426,0.374827 1.300869,0.220486 2.204863,0.451997 1.830037,0.48507 2.756079,1.466234 0.926043,0.981164 0.926043,2.745055 z"
         style="text-align:center;text-anchor:middle"
         id="path9863" />
      <path
         d="m 81.874323,100.69685 q -0.606338,0.26458 -1.102432,0.49609 -0.48507,0.23151 -1.278821,0.48507 -0.672483,0.20946 -1.466234,0.35278 -0.782726,0.15434 -1.730818,0.15434 -1.785939,0 -3.252173,-0.49609 -1.45521,-0.50712 -2.535593,-1.57648 -1.058334,-1.04731 -1.653648,-2.656861 -0.595313,-1.620574 -0.595313,-3.759292 0,-2.028474 0.573265,-3.627 0.573264,-1.598526 1.653647,-2.700958 1.04731,-1.069358 2.524569,-1.631598 1.488283,-0.562241 3.296271,-0.562241 1.322918,0 2.634811,0.319706 1.322918,0.319705 2.932469,1.12448 v 2.590714 h -0.165365 q -1.355991,-1.135504 -2.689933,-1.653647 -1.333943,-0.518143 -2.855299,-0.518143 -1.245747,0 -2.24896,0.4079 -0.992189,0.396875 -1.774915,1.245747 -0.760678,0.826824 -1.190626,2.094621 -0.418924,1.256772 -0.418924,2.910419 0,1.730818 0.463021,2.976566 0.474046,1.245748 1.212675,2.028474 0.771702,0.8158 1.796963,1.212675 1.036286,0.385848 2.182815,0.385848 1.576477,0 2.954517,-0.540189 1.37804,-0.540191 2.57969,-1.620574 h 0.154341 z"
         style="text-align:center;text-anchor:middle"
         id="path9865" />
      <path
         d="m 90.748899,101.88747 h -6.482298 v -1.67569 h 2.149741 V 87.147963 h -2.149741 v -1.675696 h 6.482298 v 1.675696 h -2.149742 v 13.063817 h 2.149742 z"
         style="text-align:center;text-anchor:middle"
         id="path9867" />
    </g>
    <g
       aria-label="0.TLB"
       transform="matrix(0.35763571,0,0,0.34445307,22.872947,52.749677)"
       id="text9299-7-4"
       style="font-style:normal;font-weight:normal;font-size:22.5778px;line-height:1.25;font-family:sans-serif;white-space:pre;shape-inside:url(#rect9301-0-9);display:inline;fill:#000000;fill-opacity:1;stroke:none">
      <path
         d="m 41.780137,96.768655 q 0,2.755231 -0.865734,4.046955 -0.858862,1.28486 -2.672779,1.28486 -1.841401,0 -2.693392,-1.30547 -0.845121,-1.305469 -0.845121,-4.012603 0,-2.727747 0.858863,-4.026346 0.858862,-1.305471 2.67965,-1.305471 1.841401,0 2.686521,1.326083 0.851992,1.319213 0.851992,3.991992 z m -1.807047,3.119388 q 0.240482,-0.556543 0.322933,-1.305471 0.08932,-0.755798 0.08932,-1.813917 0,-1.044376 -0.08932,-1.813917 -0.08245,-0.769541 -0.329804,-1.305471 -0.240481,-0.529059 -0.659606,-0.797024 -0.412254,-0.267965 -1.064989,-0.267965 -0.645865,0 -1.07186,0.267965 -0.419125,0.267965 -0.666477,0.810766 -0.233611,0.508447 -0.322933,1.326084 -0.08245,0.817637 -0.08245,1.793304 0,1.07186 0.07558,1.793305 0.07558,0.721444 0.322933,1.291728 0.226739,0.53593 0.638993,0.81764 0.419125,0.2817 1.106215,0.2817 0.645864,0 1.07186,-0.26796 0.425996,-0.26797 0.659606,-0.810767 z"
         style="font-size:14.0716px"
         id="path9848" />
      <path
         d="M 46.08819,101.88747 H 44.446045 V 99.929269 H 46.08819 Z"
         style="font-size:14.0716px"
         id="path9850" />
      <path
         d="M 61.739215,87.412547 H 55.874278 V 101.88747 H 53.691463 V 87.412547 h -5.864936 v -1.94028 h 13.912688 z"
         style="text-align:center;text-anchor:middle"
         id="path9852" />
      <path
         d="M 74.328985,101.88747 H 63.944078 V 85.472267 h 2.182815 v 14.474928 h 8.202092 z"
         style="text-align:center;text-anchor:middle"
         id="path9854" />
      <path
         d="m 88.892105,96.838338 q 0,1.223699 -0.463022,2.160766 -0.463021,0.937067 -1.245747,1.543406 -0.926043,0.7276 -2.039499,1.03628 -1.102432,0.30868 -2.811201,0.30868 H 76.511797 V 85.472267 h 4.861724 q 1.796963,0 2.689933,0.132292 0.89297,0.132292 1.708769,0.551216 0.903994,0.474045 1.311894,1.223699 0.4079,0.738629 0.4079,1.774915 0,1.168577 -0.595314,1.995401 -0.595313,0.8158 -1.587501,1.311894 v 0.08819 q 1.664672,0.341754 2.623787,1.466234 0.959116,1.113456 0.959116,2.822226 z m -3.671098,-7.397317 q 0,-0.595313 -0.198437,-1.003213 -0.198438,-0.4079 -0.639411,-0.661459 -0.518143,-0.297656 -1.256772,-0.363802 -0.738629,-0.07717 -1.830037,-0.07717 h -2.601738 v 4.740457 h 2.822225 q 1.025261,0 1.631599,-0.09922 0.606337,-0.110243 1.12448,-0.440973 0.518143,-0.330729 0.727605,-0.848872 0.220486,-0.529167 0.220486,-1.245748 z m 1.400088,7.485511 q 0,-0.992188 -0.297656,-1.576477 -0.297657,-0.584289 -1.080383,-0.992189 -0.529167,-0.275608 -1.289845,-0.352778 -0.749654,-0.08819 -1.830037,-0.08819 h -3.428562 v 6.107476 h 2.888371 q 1.433161,0 2.348179,-0.143321 0.915018,-0.15434 1.499307,-0.551216 0.617362,-0.429948 0.903994,-0.981164 0.286632,-0.551216 0.286632,-1.422137 z"
         style="text-align:center;text-anchor:middle"
         id="path9856" />
    </g>
    <g
       aria-label="B.OR"
       transform="matrix(0.35763571,0,0,0.34445307,35.190365,32.369561)"
       id="text9135-2"
       style="font-style:normal;font-weight:normal;font-size:21.1667px;line-height:1.25;font-family:sans-serif;white-space:pre;shape-inside:url(#rect9137-4);display:inline;fill:#000000;fill-opacity:1;stroke:none">
      <path
         d="m 69.553778,73.264762 q 0,0.435812 -0.164902,0.769541 -0.164901,0.33373 -0.443664,0.549672 -0.329803,0.259132 -0.726352,0.369066 -0.392623,0.109935 -1.001189,0.109935 h -2.07305 v -5.846158 h 1.731468 q 0.639975,0 0.958,0.04711 0.318025,0.04712 0.608566,0.196312 0.321951,0.168827 0.467221,0.435811 0.145271,0.263058 0.145271,0.632123 0,0.416181 -0.212017,0.710648 -0.212016,0.290541 -0.565377,0.467221 v 0.03141 q 0.592861,0.121713 0.934443,0.522189 0.341582,0.396549 0.341582,1.005115 z m -1.307435,-2.634501 q 0,-0.212016 -0.07067,-0.357287 -0.07067,-0.14527 -0.227721,-0.235574 -0.184533,-0.106008 -0.447591,-0.129565 -0.263057,-0.02748 -0.651754,-0.02748 h -0.92659 v 1.688279 h 1.005115 q 0.365139,0 0.581082,-0.03534 0.215943,-0.03926 0.400475,-0.157049 0.184533,-0.117787 0.259132,-0.30232 0.07852,-0.188459 0.07852,-0.443664 z m 0.498632,2.665911 q 0,-0.353361 -0.106009,-0.561451 -0.106008,-0.20809 -0.38477,-0.353361 -0.188459,-0.09816 -0.459369,-0.125639 -0.266984,-0.03141 -0.651755,-0.03141 h -1.221057 v 2.175132 h 1.028672 q 0.51041,0 0.836287,-0.05104 0.325877,-0.05497 0.533968,-0.196312 0.219869,-0.153123 0.321951,-0.349434 0.102082,-0.196312 0.102082,-0.506484 z"
         style="font-size:8.04092px"
         id="path9817" />
      <path
         d="M 71.724984,75.062976 H 70.786615 V 73.944 h 0.938369 z"
         style="font-size:8.04092px"
         id="path9819" />
      <path
         d="m 85.354959,62.349167 q 0.877812,0.964629 1.340834,2.36334 0.472668,1.398712 0.472668,3.17363 0,1.774917 -0.482315,3.183275 -0.472668,1.398712 -1.331187,2.334402 -0.887459,0.974275 -2.102891,1.466236 -1.205787,0.491961 -2.758839,0.491961 -1.514468,0 -2.758839,-0.501607 -1.234725,-0.501608 -2.102891,-1.45659 -0.868166,-0.954983 -1.340834,-2.344048 -0.463022,-1.389066 -0.463022,-3.173629 0,-1.755625 0.463022,-3.144691 0.463022,-1.398712 1.35048,-2.392279 0.848874,-0.945337 2.102891,-1.446944 1.263664,-0.501607 2.749193,-0.501607 1.543406,0 2.768485,0.511254 1.234725,0.501607 2.093245,1.437297 z m -0.173634,5.53697 q 0,-2.797424 -1.254017,-4.311892 -1.254018,-1.524113 -3.424433,-1.524113 -2.189707,0 -3.443725,1.524113 -1.244371,1.514468 -1.244371,4.311892 0,2.826362 1.27331,4.331183 1.27331,1.495175 3.414786,1.495175 2.141476,0 3.40514,-1.495175 1.27331,-1.504821 1.27331,-4.331183 z"
         style="font-size:19.7556px"
         id="path9821" />
      <path
         d="m 102.08162,75.062976 h -2.479091 l -4.803852,-5.710604 h -2.691315 v 5.710604 H 90.197397 V 60.699651 h 4.022502 q 1.302249,0 2.170415,0.173633 0.868166,0.163987 1.562699,0.59807 0.78135,0.491961 1.215433,1.244372 0.443729,0.742764 0.443729,1.890672 0,1.553053 -0.78135,2.604498 -0.781349,1.0418 -2.151122,1.572345 z m -4.466227,-10.32153 q 0,-0.617362 -0.221865,-1.09003 Q 97.18131,63.169101 96.679703,62.841127 96.264913,62.561385 95.695781,62.455276 95.12665,62.33952 94.354947,62.33952 h -2.247585 v 5.421215 h 1.929258 q 0.906751,0 1.581991,-0.154341 0.67524,-0.163987 1.147909,-0.59807 0.434083,-0.405144 0.636655,-0.926044 0.212218,-0.530545 0.212218,-1.340834 z"
         style="font-size:19.7556px"
         id="path9823" />
    </g>
  </g>
</svg>
